<?xml version="1.0" standalone="no"?>
<!DOCTYPE svg PUBLIC "-//W3C//DTD SVG 20010904//EN"
 "http://www.w3.org/TR/2001/REC-SVG-20010904/DTD/svg10.dtd">
<svg version="1.0" xmlns="http://www.w3.org/2000/svg"
 width="1186.000000pt" height="313.000000pt" viewBox="0 0 1186.000000 313.000000"
 preserveAspectRatio="xMidYMid meet">

<g transform="translate(0.000000,313.000000) scale(0.100000,-0.100000)"
fill="#000000" stroke="none">
<path d="M3170 2085 l0 -965 240 0 240 0 0 965 0 965 -240 0 -240 0 0 -965z"/>
<path d="M930 2555 l0 -485 120 0 120 0 0 485 0 485 -120 0 -120 0 0 -485z"/>
<path d="M510 2455 l0 -485 120 0 120 0 0 485 0 485 -120 0 -120 0 0 -485z"/>
<path d="M1352 2458 l3 -483 110 -1 c71 -1 113 3 117 10 4 6 8 223 8 482 l0
472 -120 1 -120 2 2 -483z"/>
<path d="M6055 2580 c-288 -42 -475 -228 -475 -471 0 -111 56 -233 133 -290
88 -64 234 -111 462 -149 184 -30 235 -57 235 -124 0 -119 -239 -176 -432
-103 -75 29 -167 84 -215 129 l-32 31 -33 -28 c-18 -15 -78 -70 -133 -122
l-100 -95 50 -43 c102 -89 261 -167 410 -201 120 -28 380 -26 489 4 187 52
318 147 383 280 37 74 38 79 38 186 0 93 -4 119 -22 158 -32 70 -70 115 -132
157 -107 72 -207 105 -461 155 -190 37 -220 53 -220 117 0 134 306 140 520 10
l65 -39 28 26 c16 15 69 70 118 123 l89 97 -47 30 c-74 47 -181 97 -258 121
-140 44 -329 60 -460 41z"/>
<path d="M7561 2579 c-359 -55 -571 -344 -571 -778 1 -374 183 -627 510 -707
111 -27 325 -25 443 4 142 35 254 98 353 199 50 51 134 166 134 183 0 4 -53
26 -117 50 -65 23 -139 51 -165 61 l-47 18 -37 -54 c-71 -108 -159 -154 -298
-158 -100 -2 -158 14 -222 62 -63 47 -112 139 -121 229 l-6 62 507 0 506 0 0
58 c0 86 -26 243 -55 330 -71 212 -238 370 -450 426 -74 20 -278 28 -364 15z
m275 -318 c56 -25 99 -62 121 -106 14 -27 43 -118 43 -137 0 -5 -130 -8 -289
-8 l-289 0 9 41 c42 187 233 286 405 210z"/>
<path d="M4765 2570 c-98 -20 -197 -74 -264 -144 -19 -20 -38 -36 -42 -36 -4
0 -7 34 -6 75 l2 75 -213 0 -212 0 2 -707 3 -708 208 -3 207 -2 0 427 c0 460
7 543 45 609 58 98 233 115 323 31 58 -54 57 -40 60 -575 l3 -492 207 2 207 3
2 515 c0 283 -3 548 -8 588 -20 156 -74 239 -192 297 -101 49 -227 66 -332 45z"/>
<path d="M10410 2570 c-100 -18 -209 -77 -269 -146 -17 -19 -32 -34 -33 -34
-2 0 -2 34 -2 75 l1 75 -208 0 -209 0 0 -710 0 -710 208 2 207 3 2 455 c1 294
6 471 13 502 16 65 69 124 128 142 84 25 185 -1 230 -59 38 -48 42 -108 42
-585 l0 -460 205 0 205 0 1 398 c0 554 3 584 65 652 41 45 88 64 162 62 75 -1
129 -34 161 -97 l26 -49 3 -483 3 -483 204 0 204 0 3 497 c4 706 1 738 -93
834 -95 98 -254 144 -421 122 -124 -17 -215 -57 -334 -147 -8 -7 -29 6 -68 41
-101 92 -270 132 -436 103z"/>
<path d="M9350 2537 c-90 -28 -148 -56 -217 -108 -29 -21 -54 -35 -56 -31 -3
4 -4 34 -2 67 1 33 0 66 -3 73 -3 9 -53 12 -203 12 l-199 0 0 -715 0 -715 208
2 207 3 5 440 c6 490 3 473 76 533 41 34 108 58 204 72 36 6 77 13 91 16 l27
5 -2 182 -1 182 -30 2 c-16 1 -64 -8 -105 -20z"/>
<path d="M90 1925 l0 -485 120 0 120 0 0 485 0 485 -120 0 -120 0 0 -485z"/>
<path d="M1790 2402 c-7 -3 -10 -166 -10 -481 l0 -477 25 0 c14 0 25 4 25 8 0
12 28 9 32 -3 3 -8 24 -10 71 -5 l67 8 -2 476 -3 477 -97 0 c-54 0 -102 -1
-108 -3z"/>
<path d="M1350 1395 l0 -485 120 0 120 0 0 485 0 485 -120 0 -120 0 0 -485z"/>
<path d="M957 1758 c-16 -12 -17 -49 -15 -473 l3 -460 103 -2 102 -1 0 476 c0
263 -4 472 -8 465 -5 -8 -13 -9 -22 -3 -22 14 -143 12 -163 -2z"/>
<path d="M3305 738 c-47 -17 -110 -64 -143 -105 -47 -60 -64 -110 -66 -193 -1
-67 3 -84 32 -143 33 -67 81 -115 152 -153 55 -29 210 -27 270 4 61 32 116 87
148 147 23 43 27 62 27 140 0 78 -4 97 -27 140 -32 61 -77 108 -137 143 -38
22 -59 27 -136 29 -49 1 -103 -3 -120 -9z"/>
</g>
</svg>
